<?xml version="1.0" standalone="no"?>
<!DOCTYPE svg PUBLIC "-//W3C//DTD SVG 20010904//EN"
 "http://www.w3.org/TR/2001/REC-SVG-20010904/DTD/svg10.dtd">
<svg version="1.0" xmlns="http://www.w3.org/2000/svg"
 width="300.000000pt" height="300.000000pt" viewBox="0 0 300.000000 300.000000"
 preserveAspectRatio="xMidYMid meet">

<g transform="translate(0.000000,300.000000) scale(0.100000,-0.100000)"
fill="#000000" stroke="none">
<path d="M1165 2945 c-127 -32 -209 -61 -322 -117 -71 -35 -123 -66 -123 -74
0 -19 45 -36 74 -28 14 3 32 -3 49 -16 15 -12 46 -24 68 -27 23 -4 45 -14 53
-25 8 -11 34 -24 57 -29 66 -15 82 -49 23 -49 -40 0 -67 -12 -104 -45 -14 -12
-42 -25 -64 -28 -47 -7 -83 -30 -104 -67 -12 -20 -27 -30 -52 -34 -49 -8 -68
-24 -84 -71 -8 -25 -24 -45 -39 -53 -31 -15 -67 -58 -67 -80 0 -8 -13 -30 -30
-48 -16 -19 -32 -47 -35 -62 -3 -15 -11 -44 -17 -64 -8 -29 -8 -41 2 -53 7 -8
10 -24 7 -34 -7 -28 20 -61 48 -61 14 0 39 14 59 35 20 19 42 35 51 35 24 0
92 37 98 55 5 10 20 15 49 15 24 0 56 8 74 19 17 10 49 20 72 23 38 3 42 1 42
-18 0 -15 -10 -26 -30 -34 -36 -15 -80 -64 -80 -90 0 -10 -21 -39 -46 -65 -42
-44 -46 -51 -42 -89 3 -31 -2 -49 -20 -76 -14 -22 -22 -46 -20 -65 1 -17 -6
-49 -16 -70 -16 -34 -17 -45 -7 -82 6 -24 11 -54 11 -68 0 -39 21 -75 48 -82
34 -8 53 6 77 54 11 23 27 49 37 59 9 11 23 35 31 54 8 20 26 44 40 53 15 9
34 31 42 47 9 17 22 30 31 30 29 0 74 31 80 55 8 31 37 33 58 3 14 -19 13 -23
-4 -45 -10 -13 -22 -38 -26 -56 -3 -17 -18 -48 -32 -69 -24 -36 -24 -41 -12
-81 8 -23 17 -46 22 -52 4 -5 8 -19 8 -31 0 -12 9 -33 20 -47 l21 -26 -30 -71
c-17 -38 -34 -94 -40 -122 -13 -76 7 -95 69 -63 17 9 30 11 30 6 0 -14 -45
-36 -105 -50 -70 -17 -125 -55 -125 -86 0 -32 6 -35 99 -42 78 -6 80 -7 86
-34 4 -15 15 -31 26 -34 31 -10 49 -34 49 -66 0 -38 48 -131 99 -193 54 -63
53 -80 -5 -102 -34 -13 -50 -26 -64 -54 -18 -35 -22 -37 -77 -43 -32 -3 -83
-15 -114 -26 -47 -18 -58 -27 -65 -53 -7 -24 -21 -38 -59 -57 -30 -16 -43 -27
-33 -29 9 -2 30 4 46 12 31 16 42 13 42 -14 0 -9 6 -25 14 -35 12 -17 13 -10
9 51 -5 67 -4 72 21 92 44 34 186 57 186 30 0 -7 -9 -28 -21 -47 -22 -36 -19
-61 6 -61 21 0 19 -9 -15 -60 -35 -53 -41 -89 -8 -50 19 22 98 179 98 194 0
17 -20 3 -26 -19 -7 -27 -31 -51 -41 -42 -7 8 49 136 59 137 7 0 25 -58 60
-184 7 -27 18 -51 24 -53 5 -2 29 36 52 84 54 115 66 131 84 115 8 -6 27 -44
43 -84 34 -89 41 -98 71 -98 21 0 24 -5 24 -34 0 -19 3 -41 6 -50 13 -34 20
-13 19 58 0 61 4 80 21 103 28 37 73 49 123 34 47 -14 132 -75 157 -113 11
-15 22 -28 27 -28 40 0 -92 131 -153 152 -42 14 -45 17 -42 47 4 41 -23 123
-46 137 -10 6 -32 15 -49 18 -25 6 -33 14 -38 38 -7 32 0 160 16 293 16 129
17 134 54 149 18 8 40 24 49 37 23 34 21 100 -5 133 l-21 27 40 112 c53 148
80 219 85 224 2 2 11 1 20 -3 15 -6 18 -22 31 -204 6 -82 6 -96 0 -200 -2 -47
-4 -94 -5 -105 0 -20 26 -45 47 -45 16 0 144 124 144 140 0 7 16 30 35 51 19
22 35 48 35 58 0 11 14 30 31 42 31 22 64 82 54 99 -5 8 35 79 46 80 3 0 19
-12 36 -27 20 -19 32 -41 36 -68 4 -26 15 -46 32 -58 14 -10 25 -27 25 -38 0
-27 44 -69 73 -69 37 0 67 39 67 88 0 22 4 43 9 46 14 9 21 166 10 251 -6 44
-11 105 -12 135 -1 30 -6 65 -10 76 -14 39 36 17 61 -26 15 -26 31 -40 51 -45
16 -3 37 -15 47 -26 22 -24 56 -25 77 -1 20 22 22 63 5 80 -7 7 -11 28 -10 47
2 20 -4 50 -12 68 -8 18 -17 54 -20 82 -4 28 -17 65 -31 85 -14 20 -25 49 -25
64 0 20 -11 39 -36 62 -19 19 -39 34 -43 34 -5 0 -14 15 -21 33 -7 17 -24 44
-37 58 -22 24 -23 27 -7 40 15 13 47 16 172 18 38 1 40 -3 -35 99 -137 186
-248 270 -342 258 -85 -12 -193 -6 -198 11 -2 6 8 28 22 48 14 21 25 42 25 48
0 6 7 18 16 28 15 17 11 20 -68 60 -90 46 -238 99 -274 99 -26 0 -80 -43 -89
-70 -5 -15 -15 -20 -42 -20 -26 0 -42 -8 -63 -30 l-28 -30 -21 35 c-21 36 -54
55 -94 55 -12 0 -28 9 -35 21 -19 29 -76 51 -117 43 -23 -4 -41 -1 -57 10 -26
19 -91 19 -163 1z m340 -1150 c17 -18 25 -37 25 -61 0 -24 8 -42 25 -58 14
-13 25 -32 25 -43 0 -11 11 -37 25 -57 14 -20 25 -42 25 -49 1 -24 30 -49 56
-49 30 0 64 33 64 61 0 10 13 29 28 44 l28 27 22 -23 c32 -34 28 -63 -26 -195
-27 -64 -59 -150 -72 -191 -20 -64 -27 -75 -56 -87 -37 -15 -60 -41 -28 -31
10 3 29 9 41 12 35 11 77 -37 69 -78 -11 -58 -70 -92 -117 -67 -24 13 -27 -7
-4 -24 14 -10 14 -20 0 -101 -9 -50 -20 -171 -23 -270 l-7 -180 -74 -15 c-83
-18 -97 -31 -153 -147 -16 -35 -34 -63 -38 -63 -21 0 -22 89 -2 147 41 119 37
181 -14 224 -35 29 -84 120 -101 187 -15 59 -22 71 -45 80 -16 6 -28 16 -28
24 0 11 24 14 118 14 92 -1 127 3 162 18 25 10 55 18 68 18 25 0 26 2 11 29
-10 19 -12 19 -28 5 -34 -31 -90 -46 -168 -46 -107 0 -336 21 -348 32 -16 15
29 45 93 64 97 28 118 40 136 79 10 21 27 40 37 42 21 6 26 23 7 23 -7 0 -37
-14 -67 -30 -72 -40 -81 -39 -81 8 1 49 34 127 101 237 68 112 92 165 87 196
-4 23 -5 23 -12 4 -18 -48 -21 -50 -100 -53 -69 -3 -76 -1 -76 16 0 11 10 32
22 48 13 16 23 41 24 56 2 45 44 82 44 40 0 -27 37 -62 66 -62 19 0 29 9 44
43 30 64 72 126 98 143 12 8 29 31 37 50 17 42 44 44 80 9z m-345 -380 c7 -8
19 -15 27 -15 7 0 16 7 19 15 4 8 10 15 15 15 16 0 9 -29 -14 -55 -18 -21 -28
-25 -49 -20 -34 9 -62 40 -55 60 8 19 41 19 57 0z m0 -85 c12 -7 12 -12 2 -22
-10 -10 -15 -10 -22 2 -19 29 -9 39 20 20z m520 -919 c0 -5 -7 -12 -16 -15
-22 -9 -24 -8 -24 9 0 8 9 15 20 15 11 0 20 -4 20 -9z m-340 -23 c0 -32 -19
-96 -30 -103 -9 -6 -40 56 -40 81 0 12 44 43 63 44 4 0 7 -10 7 -22z m395 -19
c9 -16 15 -44 13 -62 -3 -26 -11 -35 -53 -56 -34 -18 -56 -37 -67 -61 -19 -37
-53 -57 -65 -37 -10 16 -73 171 -70 173 1 1 40 11 86 23 46 12 96 28 110 36
14 8 27 14 28 15 1 0 10 -14 18 -31z"/>
<path d="M1330 1471 c-33 -80 75 -174 179 -156 42 7 98 54 107 89 8 33 1 69
-14 74 -9 3 -11 -3 -7 -20 l6 -23 -126 0 -127 0 5 33 c7 40 -6 42 -23 3z m160
-63 c17 -19 24 -21 40 -10 27 16 60 15 60 -2 0 -8 -14 -26 -31 -40 -23 -20
-42 -26 -78 -26 -56 0 -114 33 -119 67 -3 18 3 22 30 26 68 8 78 7 98 -15z"/>
<path d="M1360 1305 c23 -28 87 -55 130 -55 57 0 50 16 -11 23 -29 4 -70 16
-92 28 -32 16 -38 17 -27 4z"/>
<path d="M1667 1044 c-14 -14 -6 -25 13 -19 12 4 28 1 37 -6 13 -11 15 -11 12
6 -4 20 -47 33 -62 19z"/>
</g>
</svg>
